<?xml version="1.0" encoding="utf-8"?>
<!-- Generator: Adobe Illustrator 23.0.1, SVG Export Plug-In . SVG Version: 6.00 Build 0)  -->
<svg version="1.1" id="Слой_1" xmlns="http://www.w3.org/2000/svg" xmlns:xlink="http://www.w3.org/1999/xlink" x="0px" y="0px"
	 viewBox="0 0 40 40" style="enable-background:new 0 0 40 40;" xml:space="preserve">
<style type="text/css">
	.st0{fill:#FFFFFF;}
	.st1{fill:#FFFFFF;stroke:#000000;stroke-miterlimit:10;}
	.st2{stroke:#000000;stroke-width:0.5;stroke-miterlimit:10;}
	.st3{font-family:'ArialMT';}
	.st4{font-size:8.3399px;}
</style>
<rect x="0" class="st0" width="40" height="40"/>
<path d="M24.14,25.27l-4.23,0.04c-1.37,0.01-2.48-0.96-2.46-2.16v-1.13c0-0.51-0.19-0.99-0.56-1.38l-2.28-2.41
	c-1.25-1.33-1.95-3-1.93-4.72l0.06-10.56c0-1.16,1.06-2.1,2.38-2.13l11.62-0.24c1.38-0.03,2.51,0.94,2.51,2.16L29.16,15.6
	c0,0.56-0.26,1.1-0.71,1.49l-4.3,3.82"/>
<rect x="13.74" y="25.31" class="st1" width="16.09" height="13.02"/>
<text transform="matrix(1.354 0 0 1 15.9839 35.3594)" class="st2 st3 st4">W</text>
</svg>
