<?xml version="1.0" encoding="utf-8"?>
<!-- Generator: Adobe Illustrator 23.0.1, SVG Export Plug-In . SVG Version: 6.00 Build 0)  -->
<svg version="1.1" id="Слой_1" xmlns="http://www.w3.org/2000/svg" xmlns:xlink="http://www.w3.org/1999/xlink" x="0px" y="0px"
	 viewBox="0 0 60 30" style="enable-background:new 0 0 60 30;" xml:space="preserve">
<style type="text/css">
	.st0{fill:#FFFFFF;stroke:#000000;stroke-miterlimit:10;}
	.st1{fill:#FFFFFF;stroke:#666666;stroke-miterlimit:10;}
	.st2{fill:#FFFFFF;stroke:#000000;stroke-width:3;stroke-miterlimit:10;}
	.st3{stroke:#FFFFFF;stroke-width:5;stroke-miterlimit:10;}
	.st4{fill:#FFFFFF;}
	.st5{fill:none;stroke:#FFFFFF;stroke-width:3;stroke-miterlimit:10;}
</style>
<path class="st0" d="M2.49,24.75"/>
<path class="st1" d="M1.75,2.14C3.38,1.96,13.03,1.09,21.2,7.46c9.55,7.45,8.85,18.38,8.75,19.54"/>
<path class="st1" d="M18.35,23.25"/>
<path class="st1" d="M23.8,5.25"/>
<path class="st2" d="M1.35,0c0,10,0,20,0,30"/>
<path class="st3" d="M29.01,24.94c-8.67,0-17.34,0-26.01,0"/>
<polygon class="st4" points="3,3 3,25 27.52,25 "/>
<path class="st4" d="M5.71,0"/>
<polyline class="st4" points="28.51,25.5 29.75,26.98 28.51,26.98 28.51,25.5 "/>
<line class="st5" x1="3" y1="28.52" x2="31" y2="28.52"/>
<path class="st0" d="M57.86,24.75"/>
<path class="st1" d="M58.61,2.14C56.98,1.97,47.33,1.1,39.16,7.47C29.6,14.91,30.31,25.85,30.4,27"/>
<path class="st1" d="M42,23.25"/>
<path class="st1" d="M36.55,5.25"/>
<path class="st2" d="M59,0c0,10,0,20,0,30"/>
<path class="st3" d="M31.35,24.94c8.67,0,17.34,0,26.01,0"/>
<polygon class="st4" points="57.35,3 57.35,25 32.83,25 "/>
<path class="st4" d="M54.64,0"/>
<polyline class="st4" points="31.84,25.5 30.61,26.98 31.84,26.98 31.84,25.5 "/>
<line class="st5" x1="57.35" y1="28.54" x2="30.35" y2="28.54"/>
</svg>
