<?xml version="1.0" encoding="utf-8"?>
<!-- Generator: Adobe Illustrator 23.0.1, SVG Export Plug-In . SVG Version: 6.00 Build 0)  -->
<svg version="1.1" id="Слой_1" xmlns="http://www.w3.org/2000/svg" xmlns:xlink="http://www.w3.org/1999/xlink" x="0px" y="0px"
	 viewBox="0 0 60 60" style="enable-background:new 0 0 60 60;" xml:space="preserve">
<style type="text/css">
	.st0{fill:#FFFFFF;}
</style>
<g>
	<path d="M49.5,29.26l7.49,0.04l-0.04,7.35l-7.49-0.04L49.5,29.26 M48.51,28.25l-0.06,9.35l9.49,0.05L58,28.3L48.51,28.25
		L48.51,28.25z"/>
</g>
<g>
	<path d="M2.05,28.96L9.54,29L9.5,36.36l-7.49-0.04L2.05,28.96 M1.06,27.95L1,37.31l9.49,0.05l0.06-9.35L1.06,27.95L1.06,27.95z"/>
</g>
<g>
	<path d="M13.3,41.75l5.3,5.2l-5.28,5.22l-5.3-5.2L13.3,41.75 M13.3,40.35l-6.7,6.63l6.72,6.6l6.7-6.63L13.3,40.35L13.3,40.35z"/>
</g>
<g>
	<path d="M46.21,41.25l5.26,5.24l-5.31,5.18l-5.26-5.24L46.21,41.25 M46.21,39.84l-6.74,6.58l6.68,6.65l6.74-6.58L46.21,39.84
		L46.21,39.84z"/>
</g>
<g>
	<path d="M12.05,7.22l5.26,5.24l-5.31,5.18l-5.26-5.24L12.05,7.22 M12.05,5.82L5.31,12.4l6.68,6.65l6.74-6.58L12.05,5.82L12.05,5.82
		z"/>
</g>
<g>
	<path d="M33.25,50.65V58h-7.49v-7.35H33.25 M34.25,49.65h-9.49V59h9.49V49.65L34.25,49.65z"/>
</g>
<g>
	<path d="M33.25,2v7.35h-7.49V2H33.25 M34.25,1h-9.49v9.35h9.49V1L34.25,1z"/>
</g>
<g>
	<path d="M47.57,7.83l5.3,5.2l-5.28,5.22l-5.3-5.2L47.57,7.83 M47.57,6.42l-6.7,6.63l6.72,6.6l6.7-6.63L47.57,6.42L47.57,6.42z"/>
</g>
<g>
	<path class="st0" d="M29.92,44.64c-8.45,0-15.33-6.88-15.33-15.33v-1.23c0-8.45,6.88-15.33,15.33-15.33
		c8.45,0,15.33,6.88,15.33,15.33v1.23C45.25,37.76,38.37,44.64,29.92,44.64z"/>
	<path d="M29.92,13.5c8.04,0,14.58,6.54,14.58,14.58v1.23c0,8.04-6.54,14.58-14.58,14.58c-8.04,0-14.58-6.54-14.58-14.58v-1.23
		C15.34,20.04,21.88,13.5,29.92,13.5 M29.92,12L29.92,12c-8.88,0-16.08,7.2-16.08,16.08v1.23c0,8.88,7.2,16.08,16.08,16.08h0
		c8.88,0,16.08-7.2,16.08-16.08v-1.23C46,19.2,38.8,12,29.92,12L29.92,12z"/>
</g>
</svg>
