<?xml version="1.0" encoding="utf-8"?>
<!-- Generator: Adobe Illustrator 23.0.1, SVG Export Plug-In . SVG Version: 6.00 Build 0)  -->
<svg version="1.1" id="Слой_1" xmlns="http://www.w3.org/2000/svg" xmlns:xlink="http://www.w3.org/1999/xlink" x="0px" y="0px"
	 viewBox="0 0 60 60" style="enable-background:new 0 0 60 60;" xml:space="preserve">
<g>
	<path d="M12.93,15.17l7.93,0.04l-0.05,7.7l-7.93-0.04L12.93,15.17 M11.94,14.16l-0.06,9.7l9.93,0.06l0.06-9.7L11.94,14.16
		L11.94,14.16z"/>
</g>
<g>
	<path d="M1.06,14.86l7.93,0.04l-0.05,7.7l-7.93-0.04L1.06,14.86 M0.06,13.86L0,23.55l9.93,0.06l0.06-9.7L0.06,13.86L0.06,13.86z"/>
</g>
<g>
	<path d="M59,1v7.66H38.92V1H59 M60,0H37.92v9.66H60V0L60,0z"/>
</g>
<g>
	<path d="M12.93,27.19l7.93,0.04l-0.05,7.7l-7.93-0.04L12.93,27.19 M11.94,26.19l-0.06,9.7l9.93,0.06l0.06-9.7L11.94,26.19
		L11.94,26.19z"/>
</g>
<g>
	<path d="M1.05,26.89l7.93,0.04l-0.05,7.7l-7.93-0.04L1.05,26.89 M0.06,25.88L0,35.58l9.93,0.06l0.06-9.7L0.06,25.88L0.06,25.88z"/>
</g>
<g>
	<path d="M12.93,39.22l7.93,0.04l-0.05,7.7l-7.93-0.04L12.93,39.22 M11.94,38.22l-0.06,9.7l9.93,0.06l0.06-9.7L11.94,38.22
		L11.94,38.22z"/>
</g>
<g>
	<path d="M1.05,38.92l7.93,0.04l-0.05,7.7l-7.93-0.04L1.05,38.92 M0.06,37.91L0,47.61l9.93,0.06l0.06-9.7L0.06,37.91L0.06,37.91z"/>
</g>
<g>
	<path d="M12.93,51.25l7.93,0.04l-0.05,7.7l-7.93-0.04L12.93,51.25 M11.94,50.24l-0.06,9.7L21.81,60l0.06-9.7L11.94,50.24
		L11.94,50.24z"/>
</g>
<g>
	<path d="M1.05,50.94l7.93,0.04l-0.05,7.7l-7.93-0.04L1.05,50.94 M0.06,49.94L0,59.64l9.93,0.06l0.06-9.7L0.06,49.94L0.06,49.94z"/>
</g>
<g>
	<path d="M37.02,15.17l7.93,0.04l-0.05,7.7l-7.93-0.04L37.02,15.17 M36.02,14.16l-0.06,9.7l9.93,0.06l0.06-9.7L36.02,14.16
		L36.02,14.16z"/>
</g>
<g>
	<path d="M25.14,14.86l7.93,0.04l-0.05,7.7l-7.93-0.04L25.14,14.86 M24.15,13.86l-0.06,9.7l9.93,0.06l0.06-9.7L24.15,13.86
		L24.15,13.86z"/>
</g>
<g>
	<path d="M37.02,27.19l7.93,0.04l-0.05,7.7l-7.93-0.04L37.02,27.19 M36.02,26.19l-0.06,9.7l9.93,0.06l0.06-9.7L36.02,26.19
		L36.02,26.19z"/>
</g>
<g>
	<path d="M25.14,26.89l7.93,0.04l-0.05,7.7l-7.93-0.04L25.14,26.89 M24.15,25.88l-0.06,9.7l9.93,0.06l0.06-9.7L24.15,25.88
		L24.15,25.88z"/>
</g>
<g>
	<path d="M37.02,39.22l7.93,0.04l-0.05,7.7l-7.93-0.04L37.02,39.22 M36.02,38.22l-0.06,9.7l9.93,0.06l0.06-9.7L36.02,38.22
		L36.02,38.22z"/>
</g>
<g>
	<path d="M25.14,38.92l7.93,0.04l-0.05,7.7l-7.93-0.04L25.14,38.92 M24.14,37.91l-0.06,9.7l9.93,0.06l0.06-9.7L24.14,37.91
		L24.14,37.91z"/>
</g>
<g>
	<path d="M37.01,51.25l7.93,0.04l-0.05,7.7l-7.93-0.04L37.01,51.25 M36.02,50.24l-0.06,9.7L45.89,60l0.06-9.7L36.02,50.24
		L36.02,50.24z"/>
</g>
<g>
	<path d="M25.14,50.94l7.93,0.04l-0.05,7.7l-7.93-0.04L25.14,50.94 M24.14,49.94l-0.06,9.7l9.93,0.06l0.06-9.7L24.14,49.94
		L24.14,49.94z"/>
</g>
<g>
	<path d="M49.22,14.86l7.93,0.04l-0.05,7.7l-7.93-0.04L49.22,14.86 M48.23,13.86l-0.06,9.7l9.93,0.06l0.06-9.7L48.23,13.86
		L48.23,13.86z"/>
</g>
<g>
	<path d="M49.22,26.89l7.93,0.04l-0.05,7.7l-7.93-0.04L49.22,26.89 M48.23,25.88l-0.06,9.7l9.93,0.06l0.06-9.7L48.23,25.88
		L48.23,25.88z"/>
</g>
<g>
	<path d="M49.22,38.92l7.93,0.04l-0.05,7.7l-7.93-0.04L49.22,38.92 M48.23,37.91l-0.06,9.7l9.93,0.06l0.06-9.7L48.23,37.91
		L48.23,37.91z"/>
</g>
<g>
	<path d="M49.22,50.94l7.93,0.04l-0.05,7.7l-7.93-0.04L49.22,50.94 M48.23,49.94l-0.06,9.7l9.93,0.06l0.06-9.7L48.23,49.94
		L48.23,49.94z"/>
</g>
</svg>
